<?xml version="1.0" encoding="UTF-8"?>
<svg xmlns="http://www.w3.org/2000/svg" xmlns:xlink="http://www.w3.org/1999/xlink" viewBox="0 0 48 48" width="48px" height="48px">
<g id="surface195268070">
<path style=" stroke:none;fill-rule:nonzero;fill:rgb(90.588236%,29.803923%,23.529412%);fill-opacity:1;" d="M 0 24 C 0 10.746094 10.746094 0 24 0 C 37.253906 0 48 10.746094 48 24 C 48 37.253906 37.253906 48 24 48 C 10.746094 48 0 37.253906 0 24 Z M 24 47.039062 C 36.726562 47.039062 47.039062 36.726562 47.039062 24 C 47.039062 11.273438 36.726562 0.960938 24 0.960938 C 11.273438 0.960938 0.960938 11.273438 0.960938 24 C 0.960938 36.726562 11.273438 47.039062 24 47.039062 Z M 24 47.039062 "/>
<path style=" stroke:none;fill-rule:nonzero;fill:rgb(29.803923%,68.627453%,31.37255%);fill-opacity:1;" d="M 39.488281 18.246094 L 35.800781 20.277344 L 32.113281 23.777344 L 32.113281 35.800781 L 37.273438 35.800781 C 38.496094 35.800781 39.488281 34.808594 39.488281 33.585938 Z M 39.488281 18.246094 "/>
<path style=" stroke:none;fill-rule:nonzero;fill:rgb(11.764706%,53.333336%,89.803922%);fill-opacity:1;" d="M 8.511719 18.246094 L 11.179688 19.507812 L 15.886719 23.777344 L 15.886719 35.800781 L 10.726562 35.800781 C 9.503906 35.800781 8.511719 34.808594 8.511719 33.585938 Z M 8.511719 18.246094 "/>
<path style=" stroke:none;fill-rule:nonzero;fill:rgb(89.803922%,22.352941%,20.784314%);fill-opacity:1;" d="M 32.113281 14.558594 L 24 20.644531 L 15.886719 14.558594 L 15.148438 18.835938 L 15.886719 23.777344 L 24 29.863281 L 32.113281 23.777344 L 32.851562 18.835938 Z M 32.113281 14.558594 "/>
<path style=" stroke:none;fill-rule:nonzero;fill:rgb(77.64706%,15.686275%,15.686275%);fill-opacity:1;" d="M 8.511719 15.371094 L 8.511719 18.246094 L 15.886719 23.777344 L 15.886719 14.558594 L 13.582031 12.832031 C 13.035156 12.421875 12.367188 12.199219 11.683594 12.199219 C 9.929688 12.199219 8.511719 13.617188 8.511719 15.371094 Z M 8.511719 15.371094 "/>
<path style=" stroke:none;fill-rule:nonzero;fill:rgb(98.431373%,75.294119%,17.647059%);fill-opacity:1;" d="M 39.488281 15.371094 L 39.488281 18.246094 L 32.113281 23.777344 L 32.113281 14.558594 L 34.417969 12.832031 C 34.964844 12.421875 35.632812 12.199219 36.316406 12.199219 C 38.070312 12.199219 39.488281 13.617188 39.488281 15.371094 Z M 39.488281 15.371094 "/>
</g>
</svg>
