<?xml version="1.0" encoding="UTF-8"?>
<svg xmlns="http://www.w3.org/2000/svg" xmlns:xlink="http://www.w3.org/1999/xlink" viewBox="0 0 48 48" width="48px" height="48px">
<g id="surface189735129">
<path style=" stroke:none;fill-rule:nonzero;fill:rgb(20.392157%,59.607846%,85.882354%);fill-opacity:1;" d="M 24 48 C 10.746094 48 0 37.253906 0 24 C 0 10.746094 10.746094 0 24 0 C 37.253906 0 48 10.746094 48 24 C 48 37.253906 37.253906 48 24 48 Z M 24 48 "/>
<path style=" stroke:none;fill-rule:nonzero;fill:rgb(100%,100%,100%);fill-opacity:1;" d="M 37.53125 15.179688 C 36.535156 15.617188 35.464844 15.914062 34.335938 16.050781 C 35.484375 15.371094 36.367188 14.285156 36.78125 13 C 35.707031 13.628906 34.519531 14.09375 33.253906 14.335938 C 32.242188 13.265625 30.800781 12.601562 29.207031 12.601562 C 26.140625 12.601562 23.652344 15.0625 23.652344 18.101562 C 23.652344 18.53125 23.703125 18.953125 23.796875 19.359375 C 19.183594 19.125 15.09375 16.933594 12.355469 13.605469 C 11.875 14.417969 11.601562 15.371094 11.601562 16.375 C 11.601562 18.285156 12.582031 19.96875 14.070312 20.957031 C 13.160156 20.929688 12.304688 20.675781 11.554688 20.269531 C 11.554688 20.289062 11.554688 20.3125 11.554688 20.335938 C 11.554688 23.003906 13.46875 25.226562 16.007812 25.734375 C 15.542969 25.859375 15.054688 25.929688 14.546875 25.929688 C 14.1875 25.929688 13.839844 25.890625 13.5 25.828125 C 14.207031 28.011719 16.257812 29.605469 18.6875 29.652344 C 16.785156 31.125 14.394531 32.007812 11.789062 32.007812 C 11.339844 32.007812 10.902344 31.984375 10.464844 31.929688 C 12.925781 33.488281 15.84375 34.398438 18.980469 34.398438 C 29.191406 34.398438 34.777344 26.015625 34.777344 18.738281 C 34.777344 18.5 34.769531 18.261719 34.757812 18.027344 C 35.847656 17.257812 36.789062 16.289062 37.53125 15.179688 "/>
</g>
</svg>
